<svg xmlns:xlink="http://www.w3.org/1999/xlink"
    xmlns="http://www.w3.org/2000/svg" viewBox="0 0 268.11 268.11" width="268.11" height="268.11">
    <g id="Ebene_2" data-name="Ebene 2">
        <g id="Ebene_1-2" data-name="Ebene 1">
            <path style="fill:none;" d="M268.11,134.05A134.06,134.06,0,1,0,134.05,268.11,134.06,134.06,0,0,0,268.11,134.05ZM62,134.05a72.08,72.08,0,1,1,72.07,72.08A72.07,72.07,0,0,1,62,134.05Z"/>
            <path style="fill:#3fe4c5;" d="M203.73,115.66a72,72,0,0,1-88.07,88.07L68.44,251A134,134,0,0,0,251,68.44Z"/>
            <path style="fill:#3fe4c5;" d="M64.48,152.84a72.06,72.06,0,0,1,88.36-88.36L200,17.34A134,134,0,0,0,17.34,200Z"/>
        </g>
    </g>
</svg>