<svg xmlns:xlink="http://www.w3.org/1999/xlink"
    xmlns="http://www.w3.org/2000/svg" viewBox="0 0 213.36 263.57" width="213.36" height="263.57">
    <g id="a"/>
    <g id="b">
        <g id="c">
            <path style="fill:#44d1fd;" d="M131.69,.09l81.67-.09L76.34,136.95l-35.71,35.51L0,131.78,131.69,.09Zm-.76,122.28c1.06-1.4,3.01-.71,4.49-.89l77.87,.02-70.97,70.9-40.84-40.59,29.45-29.44Z"/>
            <path style="fill:#1fbcfd;" d="M60.77,192.47l40.71-40.66,40.84,40.59,.17,.18-41,40.62-40.72-40.73h0Z"/>
            <path style="fill:#08589c;" d="M101.49,233.2l41-40.62,70.83,70.9c-26.68,.06-53.35-.02-80.02,.04-1.52,.34-2.46-1.05-3.43-1.91l-28.38-28.41h0Z"/>
        </g>
    </g>
</svg>